<!-- icon666.com - MILLIONS vector ICONS FREE --><svg version="1.1" id="Layer_1" xmlns="http://www.w3.org/2000/svg" xmlns:xlink="http://www.w3.org/1999/xlink" x="0px" y="0px" viewBox="0 0 512 512" style="enable-background:new 0 0 512 512;" xml:space="preserve"><path style="fill:#333333;" d="M133.336,435.2h245.328c13.993,0,25.336,11.342,25.336,25.332l0,0 c0,13.99-11.343,25.332-25.336,25.332H133.336c-13.993,0-25.336-11.342-25.336-25.332l0,0C108,446.542,119.344,435.2,133.336,435.2z "></path><path d="M32,26.136h448c17.673,0,32,14.327,32,32v256.001c0,17.673-14.327,32-32,32H32c-17.673,0.001-32-14.326-32-32V58.135 C0,40.462,14.327,26.136,32,26.136z"></path><rect x="159.998" y="386.941" style="fill:#CCCCCC;" width="191.999" height="48.264"></rect><g><polygon style="fill:#999999;" points="145.032,74.272 90.464,74.272 74.096,57.903 0.008,57.903 0.008,49.904 77.408,49.904 93.776,66.272 145.032,66.272 "></polygon><polygon style="fill:#999999;" points="421.544,318.536 366.976,318.536 366.976,310.536 418.232,310.536 434.6,294.168 512,294.168 512,302.167 437.912,302.167 "></polygon></g><path style="fill:#E21B1B;" d="M176.656,242.936c-8.975,5.087-19.124,7.74-29.44,7.696c-16.778,0.468-32.83-6.851-43.48-19.824 c-6.707-8.197-10.915-18.149-12.12-28.672H79.304v-11.72h10.775v-3.08c0-2.304,0.192-4.8,0.392-6.92h-11.2V168.48H92.16 c1.969-10.845,6.96-20.915,14.4-29.048c10.545-11.846,25.761-18.463,41.616-18.096c9.496-0.074,18.89,1.962,27.504,5.96l-4.8,17.888 c-6.671-3.406-14.054-5.182-21.544-5.184c-9.303-0.24-18.24,3.628-24.432,10.576c-4.397,5.082-7.326,11.266-8.472,17.888h50.4 v11.928h-52.72c-0.324,2.23-0.452,4.484-0.384,6.736v3.265h53.104v11.744h-50.977c0.847,6.961,3.723,13.519,8.271,18.856 c6.725,6.974,16.102,10.757,25.784,10.4c7.916-0.092,15.697-2.069,22.697-5.769L176.656,242.936z"></path><path style="fill:#999999;" d="M303.152,242.936c-8.975,5.087-19.124,7.74-29.44,7.696c-16.778,0.468-32.83-6.851-43.48-19.824 c-6.707-8.197-10.915-18.149-12.12-28.672H205.8v-11.72h10.776v-3.08c0-2.304,0.192-4.8,0.392-6.92h-11.2V168.48h12.888 c1.969-10.845,6.96-20.915,14.4-29.048c10.543-11.847,25.761-18.464,41.616-18.096c9.498-0.073,18.895,1.963,27.512,5.96 l-4.8,17.888c-6.671-3.406-14.054-5.182-21.544-5.184c-9.305-0.239-18.244,3.628-24.44,10.576 c-4.392,5.084-7.318,11.268-8.464,17.888h50.4v11.928h-52.711c-0.331,2.229-0.462,4.484-0.392,6.736v3.265h53.104v11.744h-50.984 c0.85,6.96,3.727,13.517,8.271,18.856c6.725,6.974,16.102,10.757,25.784,10.4c7.918-0.093,15.701-2.071,22.704-5.769 L303.152,242.936z"></path><path style="fill:#CCCCCC;" d="M429.641,242.936c-8.975,5.087-19.124,7.74-29.44,7.696c-16.778,0.468-32.83-6.851-43.48-19.824 c-6.707-8.197-10.915-18.149-12.12-28.672h-12.312v-11.72h10.776v-3.08c0-2.304,0.192-4.8,0.392-6.92h-11.2V168.48h12.888 c1.969-10.845,6.96-20.915,14.4-29.048c10.547-11.848,25.766-18.466,41.624-18.096c9.496-0.074,18.89,1.962,27.504,5.96l-4.8,17.888 c-6.671-3.406-14.054-5.182-21.544-5.184c-9.303-0.24-18.24,3.628-24.432,10.576c-4.397,5.082-7.326,11.266-8.472,17.888h50.4 v11.928h-52.72c-0.324,2.23-0.452,4.484-0.384,6.736v3.265h53.104v11.744h-50.984c0.847,6.961,3.723,13.519,8.272,18.856 c6.725,6.974,16.102,10.757,25.784,10.4c7.916-0.092,15.697-2.069,22.697-5.769L429.641,242.936z"></path></svg>